<svg width="200" height="81" viewBox="0 0 200 81" fill="none" xmlns="http://www.w3.org/2000/svg">
<g filter="url(#filter0_i_28_16)">
<path fill-rule="evenodd" clip-rule="evenodd" d="M136.84 39.3571C135.022 44.051 132.712 47.9248 129.781 49.9137C126.156 52.3731 121.284 53.1557 115.939 53.2577C111.987 53.3332 107.714 53.0353 103.431 52.7366L103.431 52.7366C101.92 52.6312 100.408 52.5258 98.9078 52.4366C93.1284 52.093 87.5163 51.9888 82.7056 53.0125C77.9095 54.0331 73.9569 56.1642 71.4254 60.2627C68.1338 65.592 66.8353 70.822 66.535 75.9392C66.3688 78.7709 68.7564 81 71.5929 81V81C74.1713 81 76.3324 79.134 77.1209 76.6791C77.9097 74.2232 79.0282 71.7409 80.5746 69.2373C83.2931 64.8358 87.528 62.5919 92.4975 61.5344C97.4525 60.48 103.184 60.5945 108.967 60.9384C110.492 61.029 112.019 61.1355 113.539 61.2414L113.54 61.2415L113.54 61.2415L113.54 61.2416C117.81 61.5392 122.016 61.8324 125.92 61.7579C131.216 61.6568 135.844 60.8769 139.219 58.5863C141.881 56.7798 144.018 53.116 145.683 48.4158C147.341 43.7366 148.501 38.1202 149.267 32.5197C149.536 30.5564 149.756 28.5971 149.932 26.6835C150.015 25.7759 149.881 24.8596 149.51 24.0271C149.146 23.2105 148.755 22.4082 148.34 21.6212C146.474 18.0868 141.695 19.4872 141.005 23.4238V23.4238C140.025 29.0181 138.665 34.6438 136.84 39.3571ZM152.212 32.5088C151.975 31.3243 150.422 31.4584 150.258 32.6553V32.6553C149.487 38.2923 148.315 43.9822 146.626 48.7498C144.944 53.4965 142.719 57.4202 139.781 59.4137C136.156 61.8731 131.284 62.6557 125.939 62.7577C121.987 62.8332 117.714 62.5353 113.431 62.2366L113.431 62.2366C111.92 62.1312 110.408 62.0258 108.908 61.9366C103.128 61.593 97.5163 61.4888 92.7056 62.5125C87.9095 63.5331 83.9569 65.6642 81.4254 69.7627C80.5785 71.134 79.8635 72.4986 79.2635 73.8564C77.6884 77.4211 80.6594 81 84.5565 81V81C86.992 81 89.1653 79.5562 90.4293 77.4744C90.4773 77.3954 90.5258 77.3163 90.5746 77.2373C93.2931 72.8358 97.528 70.5919 102.497 69.5344C107.452 68.48 113.184 68.5945 118.967 68.9384C120.492 69.029 122.019 69.1355 123.539 69.2415L123.54 69.2415C127.81 69.5392 132.016 69.8324 135.92 69.7579V69.7579C139.134 69.6965 142.17 68.2533 144.175 65.7408C149.698 58.8183 153 50.0447 153 40.5C153 37.7644 152.729 35.0922 152.212 32.5088ZM103.134 78.9952C101.868 80.1633 100.28 81 98.5568 81H93.3475C91.6354 81 90.5257 79.2195 91.4254 77.7627V77.7627C93.9569 73.6642 97.9095 71.5331 102.706 70.5125C107.516 69.4888 113.128 69.593 118.908 69.9366C120.408 70.0258 121.92 70.1312 123.431 70.2366L123.431 70.2366C127.714 70.5353 131.987 70.8332 135.939 70.7577V70.7577C137.124 70.7351 137.729 72.206 136.781 72.9171C136.105 73.4245 135.412 73.9113 134.704 74.3764C134.329 74.6228 133.881 74.732 133.433 74.6948C132.563 74.6222 131.684 74.5442 130.8 74.4656L130.8 74.4656C128.899 74.2966 126.97 74.1252 125.032 74.001C116.919 73.4809 108.764 73.802 103.134 78.9952ZM110.912 75.888C107.181 76.9418 108.622 81 112.5 81V81C119.121 81 125.371 79.4112 130.889 76.594C131.441 76.3127 131.269 75.5115 130.653 75.4568V75.4568L130.653 75.4568C128.757 75.2887 126.849 75.1195 124.968 74.999C119.978 74.6791 115.134 74.6959 110.912 75.888ZM55.8099 77.5737C56.0126 79.5392 57.697 81 59.673 81H60.451C63.2138 81 65.3753 78.6833 65.5342 75.9251C65.8369 70.6679 67.1668 65.2547 70.5746 59.7373C73.2931 55.3358 77.528 53.0919 82.4975 52.0344C87.4525 50.98 93.1841 51.0945 98.9672 51.4384C100.492 51.529 102.019 51.6355 103.539 51.7414L103.54 51.7415L103.54 51.7415L103.54 51.7416C107.81 52.0392 112.016 52.3324 115.92 52.2579C121.216 52.1568 125.844 51.3769 129.219 49.0863C131.888 47.2752 134.107 43.6448 135.907 38.996C137.7 34.3666 139.046 28.8111 140.02 23.2512C140.501 20.5077 140.89 17.7696 141.197 15.1482C141.413 13.3055 140.787 11.4568 139.401 10.224V10.224C135.931 7.1388 130.945 9.93466 130.369 14.5419C130.138 16.3875 129.852 18.2819 129.504 20.1778C128.648 24.8391 127.411 29.532 125.676 33.5468C123.945 37.5531 121.694 40.9366 118.781 42.9137C115.156 45.3731 110.284 46.1557 104.939 46.2577C100.987 46.3332 96.7144 46.0353 92.4309 45.7366L92.4307 45.7366C90.92 45.6312 89.4078 45.5258 87.9078 45.4366C82.1284 45.093 76.5163 44.9888 71.7056 46.0125C66.9095 47.0331 62.9569 49.1642 60.4254 53.2627C55.2584 61.6284 55.0026 69.7492 55.8099 77.5737V77.5737ZM54.8151 77.6763C54.9971 79.4396 53.6381 81 51.8654 81H47.5195C47.4408 81 47.3746 80.941 47.3656 80.8629V80.8629C47.3547 80.7691 47.3436 80.6753 47.3324 80.5814C47.14 78.9678 46.9054 77.3338 46.6692 75.6878L46.6686 75.6836L46.668 75.6795C46.6301 75.416 46.5923 75.1523 46.5545 74.8882C46.2802 72.9688 46.0119 71.0319 45.8099 69.0737C45.0026 61.2492 45.2584 53.1284 50.4254 44.7627C52.9569 40.6642 56.9095 38.5331 61.7056 37.5125C66.5163 36.4888 72.1284 36.593 77.9078 36.9366C79.4078 37.0258 80.92 37.1312 82.4307 37.2366L82.4309 37.2366C86.7144 37.5353 90.9868 37.8332 94.9392 37.7577C100.284 37.6557 105.156 36.8731 108.781 34.4137C114.537 30.5079 117.785 23.2732 119.498 16.2053C120.244 13.1286 120.705 10.0609 120.953 7.27588C121.239 4.06063 124.26 1.59861 127.266 2.77592V2.77592C129.075 3.48454 130.144 5.29066 130.033 7.23036C129.814 11.0444 129.344 15.5123 128.521 19.9972C127.673 24.6151 126.453 29.2284 124.758 33.1501C123.06 37.0802 120.906 40.2634 118.219 42.0863C114.844 44.3769 110.216 45.1568 104.92 45.2579C101.016 45.3324 96.8097 45.0392 92.5402 44.7416L92.5399 44.7415L92.5395 44.7415L92.5387 44.7414C91.0193 44.6355 89.4919 44.529 87.9672 44.4384C82.1841 44.0945 76.4525 43.98 71.4975 45.0344C66.528 46.0919 62.2931 48.3358 59.5746 52.7373C54.2416 61.3716 53.9974 69.7508 54.8151 77.6763V77.6763ZM40.5 81H46.0725C46.2335 81 46.3585 80.8597 46.3395 80.6998V80.6998C46.1486 79.099 45.9159 77.4781 45.6795 75.8312L45.6783 75.8231L45.6764 75.8099L45.6738 75.7914C45.6374 75.5382 45.601 75.2843 45.5646 75.0297C45.2901 73.1093 45.0194 71.1556 44.8151 69.1763C43.9974 61.2508 44.2416 52.8716 49.5746 44.2373C52.2931 39.8358 56.528 37.5919 61.4975 36.5344C66.4525 35.48 72.1841 35.5945 77.9672 35.9384C79.4919 36.029 81.0193 36.1355 82.5387 36.2414L82.5395 36.2415L82.5399 36.2415L82.5402 36.2416C86.8097 36.5392 91.0159 36.8324 94.9201 36.7579C100.216 36.6568 104.844 35.8769 108.219 33.5863C113.663 29.8921 116.832 22.9602 118.527 15.9697C119.153 13.3862 119.574 10.811 119.835 8.41363C120.323 3.9317 117.008 0 112.5 0V0V0C111.503 0 110.692 0.797371 110.631 1.79287C110.467 4.48218 110.048 7.46712 109.246 10.4667C107.648 16.4384 104.515 22.5226 98.7808 26.4137C95.1565 28.8731 90.2838 29.6557 84.9392 29.7577C80.9868 29.8332 76.7144 29.5353 72.4309 29.2366L72.4307 29.2366C70.92 29.1312 69.4078 29.0258 67.9078 28.9366C62.1284 28.593 56.5163 28.4888 51.7056 29.5125C46.9095 30.5331 42.9569 32.6642 40.4254 36.7627C35.2584 45.1284 35.0026 53.2492 35.8099 61.0737C36.0119 63.0319 36.2802 64.9688 36.5545 66.8882L36.6062 67.2491L36.6692 67.6878C36.9054 69.3338 37.14 70.9678 37.3324 72.5814C37.5562 74.4582 37.7243 76.3168 37.7725 78.1523C37.8126 79.682 38.9698 81 40.5 81V81ZM36.6439 75.7448C36.8569 78.5102 34.4324 80.6449 31.7241 80.0466C30.99 79.8844 30.2634 79.7023 29.5449 79.5009C27.9335 79.0492 27.2583 77.2274 27.495 75.5707V75.5707C28.0042 72.006 27.7794 68.3299 27.3324 64.5814C27.14 62.9678 26.9054 61.3338 26.6692 59.6878L26.6686 59.6836C26.6305 59.4188 26.5925 59.1537 26.5545 58.8882C26.2802 56.9688 26.0119 55.0319 25.8099 53.0737C25.0026 45.2492 25.2584 37.1284 30.4254 28.7627C32.9569 24.6642 36.9095 22.5331 41.7056 21.5125C46.5163 20.4888 52.1284 20.593 57.9078 20.9366C59.4078 21.0258 60.92 21.1312 62.4307 21.2366L62.4309 21.2366C66.7144 21.5353 70.9868 21.8332 74.9392 21.7577C80.2838 21.6557 85.1565 20.8731 88.7808 18.4137C94.5151 14.5226 97.6483 8.43843 99.2455 2.46669V2.46669C99.6264 1.04265 100.883 0 102.357 0H104.215C107.227 0 109.682 2.48663 109.248 5.46739C109.023 7.01364 108.707 8.60908 108.279 10.2083C106.718 16.0449 103.685 21.8774 98.2192 25.5863C94.8435 27.8769 90.2162 28.6568 84.9201 28.7579C81.0159 28.8324 76.8097 28.5392 72.5402 28.2416L72.5399 28.2415L72.5395 28.2415L72.5387 28.2414L72.5384 28.2414L72.5382 28.2414L72.5374 28.2414L72.5373 28.2414C71.0183 28.1355 69.4914 28.029 67.9672 27.9384C62.1841 27.5945 56.4525 27.48 51.4975 28.5344C46.528 29.5919 42.2931 31.8358 39.5746 36.2373C34.2416 44.8716 33.9974 53.2508 34.8151 61.1763C35.0194 63.1556 35.2901 65.1093 35.5646 67.0297L35.6105 67.3502L35.6738 67.7914L35.6764 67.8099L35.6783 67.8231L35.6795 67.8312C35.9159 69.4781 36.1486 71.099 36.3395 72.6998C36.4618 73.7259 36.5666 74.7408 36.6439 75.7448ZM17.495 67.5707C17.0791 70.4815 17.2906 73.8242 19.8174 75.328C20.8421 75.9378 21.896 76.5037 22.9766 77.0231C24.4536 77.7331 26.2733 77.0517 26.505 75.4293V75.4293C26.9958 71.994 26.7831 68.4201 26.3395 64.6998C26.1486 63.099 25.9159 61.4781 25.6795 59.8312L25.6783 59.8231C25.6405 59.5593 25.6025 59.2949 25.5646 59.0297C25.2901 57.1093 25.0194 55.1556 24.8151 53.1763C23.9974 45.2508 24.2416 36.8716 29.5746 28.2373C32.2931 23.8358 36.528 21.5919 41.4975 20.5344C46.4525 19.48 52.1841 19.5945 57.9672 19.9384C59.4914 20.029 61.0184 20.1355 62.5374 20.2414L62.5378 20.2414L62.5381 20.2414L62.5385 20.2414L62.5388 20.2415L62.5392 20.2415L62.5395 20.2415L62.5399 20.2415L62.5402 20.2416C66.8097 20.5392 71.0159 20.8324 74.9201 20.7579C80.2162 20.6568 84.8435 19.8769 88.2192 17.5863C93.685 13.8774 96.7184 8.0449 98.2795 2.20831V2.20831C98.5821 1.07701 97.7039 0 96.5328 0H91.2368C88.8254 0 86.691 1.44421 85.4013 3.48162C83.7235 6.13195 81.557 8.52986 78.7808 10.4137C75.1565 12.8731 70.2838 13.6557 64.9392 13.7577C60.9868 13.8332 56.7144 13.5353 52.4309 13.2366L52.4307 13.2366C50.92 13.1312 49.4078 13.0258 47.9078 12.9366C42.1284 12.593 36.5163 12.4888 31.7056 13.5125C26.9095 14.5331 22.9569 16.6642 20.4254 20.7627C15.2584 29.1284 15.0026 37.2492 15.8099 45.0737C16.0119 47.0319 16.2802 48.9688 16.5545 50.8882C16.5925 51.1537 16.6305 51.4188 16.6686 51.6836L16.6692 51.6878C16.9054 53.3338 17.14 54.9678 17.3324 56.5814C17.7794 60.3299 18.0042 64.006 17.495 67.5707V67.5707ZM79.1274 8.93398C83.3763 5.70719 80.0209 0 74.6856 0V0C72.8014 0 71.0238 0.777423 69.5089 1.89776C69.271 2.07372 69.0283 2.24577 68.7808 2.41374C65.1565 4.87307 60.2838 5.6557 54.9392 5.75772C50.9868 5.83317 46.7144 5.53527 42.4309 5.2366L42.4307 5.23659C40.92 5.13124 39.4078 5.02581 37.9078 4.93662C32.1284 4.59298 26.5163 4.48878 21.7056 5.51249V5.51249C19.7162 5.93584 17.8673 6.84782 16.2395 8.0674C15.2611 8.80047 14.3169 9.57679 13.4098 10.3935C10.5296 12.9869 8.2766 16.2553 7.08633 19.9437C5.19928 25.7913 5.23557 31.5075 5.80986 37.0737C6.0119 39.0319 6.2802 40.9688 6.55454 42.8882C6.59248 43.1537 6.63054 43.4188 6.66855 43.6836L6.66915 43.6878C6.90545 45.3338 7.14001 46.9678 7.33242 48.5814C7.77942 52.3299 8.00422 56.006 7.49498 59.5707V59.5707C7.2162 61.5222 7.18518 63.62 8.38759 65.1821C9.28849 66.3525 10.2519 67.4722 11.2729 68.5363C13.0251 70.3624 16.1471 69.9347 16.505 67.4293V67.4293C16.9958 63.994 16.7831 60.4201 16.3395 56.6998C16.1486 55.099 15.9159 53.4781 15.6795 51.8312L15.6783 51.8231L15.6776 51.8181C15.64 51.556 15.6023 51.2932 15.5646 51.0297C15.2901 49.1093 15.0194 47.1556 14.8151 45.1763C13.9974 37.2508 14.2416 28.8716 19.5746 20.2373C22.2931 15.8358 26.528 13.5919 31.4975 12.5344C36.4525 11.48 42.1841 11.5945 47.9672 11.9384C49.4923 12.0291 51.0201 12.1356 52.5399 12.2415L52.5402 12.2416C56.8097 12.5392 61.0159 12.8324 64.9201 12.7579C70.2162 12.6568 74.8435 11.8769 78.2192 9.58626C78.5298 9.37556 78.8324 9.158 79.1274 8.93398ZM68.2192 1.58626C68.9648 1.08035 68.5771 0 67.6761 0H40.5C39.4291 0 38.368 0.0415607 37.3181 0.123157C34.7038 0.326334 35.3496 3.78274 37.9672 3.93838V3.93838C39.4922 4.02906 41.02 4.13557 42.5398 4.24152L42.5399 4.24153L42.5402 4.24155C46.8097 4.5392 51.0159 4.83244 54.9201 4.7579C60.2162 4.6568 64.8435 3.87693 68.2192 1.58626V1.58626ZM4.81514 37.1763C4.55123 34.6184 0.502428 33.6018 0.229938 36.1588C0.0779519 37.5851 0 39.0334 0 40.5C0 47.4226 1.73682 53.9395 4.79847 59.6387C5.23783 60.4566 6.37373 60.3484 6.50502 59.4293V59.4293C6.99578 55.994 6.78308 52.4201 6.33945 48.6998C6.14856 47.099 5.91589 45.4781 5.67949 43.8312L5.67832 43.8231L5.67825 43.8226L5.67819 43.8222L5.67812 43.8217L5.67806 43.8213C5.64028 43.5581 5.60241 43.2943 5.5646 43.0297C5.29011 41.1093 5.01935 39.1556 4.81514 37.1763V37.1763Z" fill="#DEE9E7"/>
</g>
<g filter="url(#filter1_d_28_16)">
<path d="M15.18 29.628V30.276H20.292V54H25.188V30.276H30.336V29.628H15.18ZM42.4919 41.688V54H47.3879V29.628H42.4919V41.04H37.4519V29.628H32.5559V54H37.4519V41.688H42.4919ZM63.6371 53.352H56.4011V41.94H61.6211V41.292H56.4011V30.276H62.9891V29.628H51.5051V54H63.6371V53.352ZM85.1603 54.468C93.2603 54.468 98.6243 49.392 98.6243 41.76C98.6243 34.164 93.1523 29.124 85.1603 29.124C77.0243 29.124 71.7323 34.2 71.7323 41.832C71.7323 49.428 77.1323 54.468 85.1603 54.468ZM85.1603 53.892C80.3363 53.892 77.2403 49.032 77.2403 41.724C77.2403 34.524 80.3723 29.7 85.1603 29.7C90.0563 29.7 93.1163 34.56 93.1163 41.868C93.1163 49.068 89.9483 53.892 85.1603 53.892ZM109.278 54H114.282L109.062 29.628H104.094L104.49 31.5L99.6664 54H100.422L102.114 46.116H107.586L109.278 54ZM102.222 45.468L104.85 33.192L107.478 45.468H102.222ZM116.79 54H121.686V29.628H116.79V54ZM125.97 37.836L130.758 29.628H130.002L122.586 42.3L126.726 54H132.414L125.97 37.836Z" fill="white"/>
</g>
<defs>
<filter id="filter0_i_28_16" x="0" y="0" width="164" height="93" filterUnits="userSpaceOnUse" color-interpolation-filters="sRGB">
<feFlood flood-opacity="0" result="BackgroundImageFix"/>
<feBlend mode="normal" in="SourceGraphic" in2="BackgroundImageFix" result="shape"/>
<feColorMatrix in="SourceAlpha" type="matrix" values="0 0 0 0 0 0 0 0 0 0 0 0 0 0 0 0 0 0 127 0" result="hardAlpha"/>
<feOffset dx="11" dy="12"/>
<feGaussianBlur stdDeviation="22.5"/>
<feComposite in2="hardAlpha" operator="arithmetic" k2="-1" k3="1"/>
<feColorMatrix type="matrix" values="0 0 0 0 0.121569 0 0 0 0 0.294118 0 0 0 0 0.266667 0 0 0 1 0"/>
<feBlend mode="normal" in2="shape" result="effect1_innerShadow_28_16"/>
</filter>
<filter id="filter1_d_28_16" x="11.18" y="29.124" width="125.234" height="33.344" filterUnits="userSpaceOnUse" color-interpolation-filters="sRGB">
<feFlood flood-opacity="0" result="BackgroundImageFix"/>
<feColorMatrix in="SourceAlpha" type="matrix" values="0 0 0 0 0 0 0 0 0 0 0 0 0 0 0 0 0 0 127 0" result="hardAlpha"/>
<feOffset dy="4"/>
<feGaussianBlur stdDeviation="2"/>
<feComposite in2="hardAlpha" operator="out"/>
<feColorMatrix type="matrix" values="0 0 0 0 0 0 0 0 0 0 0 0 0 0 0 0 0 0 0.25 0"/>
<feBlend mode="normal" in2="BackgroundImageFix" result="effect1_dropShadow_28_16"/>
<feBlend mode="normal" in="SourceGraphic" in2="effect1_dropShadow_28_16" result="shape"/>
</filter>
</defs>
</svg>
